<svg width="156" height="22" viewBox="0 0 156 22" fill="none" xmlns="http://www.w3.org/2000/svg">
<path d="M9.95718 12.0789C9.95718 13.4452 8.12699 16.2312 6.44057 18.0831C4.7534 16.2312 2.92453 13.4452 2.92453 12.0789C2.92453 9.95724 4.30491 8.58648 6.44095 8.58648C8.57699 8.58648 9.95718 9.95724 9.95718 12.0789ZM12.8936 12.0457C12.8936 8.32421 10.1823 5.62327 6.4468 5.62327C2.71132 5.62327 0 8.32459 0 12.0457C0 13.6537 0.920944 15.6118 2.81585 18.0289C3.63581 19.0712 4.51792 20.063 5.45736 20.9989C5.72233 21.257 6.07759 21.4014 6.44746 21.4014C6.81733 21.4014 7.17259 21.257 7.43755 20.9989C8.37705 20.063 9.25916 19.0712 10.0791 18.0289C11.9727 15.6118 12.8936 13.6537 12.8936 12.0457Z" fill="#28B044"/>
<path d="M47.4878 7.10582V19.9432C47.4878 20.3324 47.6424 20.7057 47.9177 20.9809C48.1929 21.2561 48.5662 21.4107 48.9554 21.4107C49.3446 21.4107 49.7179 21.2561 49.9931 20.9809C50.2683 20.7057 50.4229 20.3324 50.4229 19.9432V7.10582C50.4229 6.7166 50.2683 6.34332 49.9931 6.0681C49.7179 5.79288 49.3446 5.63827 48.9554 5.63827C48.5662 5.63827 48.1929 5.79288 47.9177 6.0681C47.6424 6.34332 47.4878 6.7166 47.4878 7.10582Z" fill="#FF6C16"/>
<path d="M54.573 7.10582V19.9432C54.573 20.3324 54.7276 20.7057 55.0029 20.9809C55.2781 21.2561 55.6514 21.4107 56.0406 21.4107C56.4298 21.4107 56.8031 21.2561 57.0783 20.9809C57.3535 20.7057 57.5081 20.3324 57.5081 19.9432V7.10582C57.5081 6.7166 57.3535 6.34332 57.0783 6.0681C56.8031 5.79288 56.4298 5.63827 56.0406 5.63827C55.6514 5.63827 55.2781 5.79288 55.0029 6.0681C54.7276 6.34332 54.573 6.7166 54.573 7.10582Z" fill="#FF6C16"/>
<path d="M51.1104 9.94845V19.9528C51.1037 20.1502 51.1368 20.3469 51.2077 20.5312C51.2786 20.7155 51.3859 20.8836 51.5231 21.0256C51.6603 21.1676 51.8248 21.2805 52.0066 21.3576C52.1884 21.4347 52.3838 21.4745 52.5813 21.4745C52.7788 21.4745 52.9742 21.4347 53.156 21.3576C53.3378 21.2805 53.5022 21.1676 53.6395 21.0256C53.7767 20.8836 53.884 20.7155 53.9548 20.5312C54.0257 20.3469 54.0588 20.1502 54.0521 19.9528V9.94845C54.0588 9.75109 54.0257 9.5544 53.9548 9.3701C53.884 9.18579 53.7767 9.01763 53.6395 8.87565C53.5022 8.73366 53.3378 8.62075 53.156 8.54363C52.9742 8.46651 52.7788 8.42677 52.5813 8.42677C52.3838 8.42677 52.1884 8.46651 52.0066 8.54363C51.8248 8.62075 51.6603 8.73366 51.5231 8.87565C51.3859 9.01763 51.2786 9.18579 51.2077 9.3701C51.1368 9.5544 51.1037 9.75109 51.1104 9.94845Z" fill="#FF6C16"/>
<path d="M43.9563 9.96152V19.9396C43.9541 20.1337 43.9904 20.3262 44.0631 20.5061C44.1359 20.686 44.2436 20.8497 44.38 20.9877C44.5164 21.1257 44.6789 21.2352 44.858 21.31C45.037 21.3848 45.2291 21.4233 45.4232 21.4233C45.6172 21.4233 45.8094 21.3848 45.9884 21.31C46.1675 21.2352 46.3299 21.1257 46.4664 20.9877C46.6028 20.8497 46.7105 20.686 46.7832 20.5061C46.856 20.3262 46.8923 20.1337 46.8901 19.9396V9.96152C46.8923 9.76749 46.856 9.57495 46.7832 9.39505C46.7105 9.21514 46.6028 9.05146 46.4664 8.91347C46.3299 8.77548 46.1675 8.66594 45.9884 8.59117C45.8094 8.5164 45.6172 8.4779 45.4232 8.4779C45.2291 8.4779 45.037 8.5164 44.858 8.59117C44.6789 8.66594 44.5164 8.77548 44.38 8.91347C44.2436 9.05146 44.1359 9.21514 44.0631 9.39505C43.9904 9.57495 43.9541 9.76749 43.9563 9.96152Z" fill="#FF6C16"/>
<path d="M31.8191 18.4418C33.101 18.4418 34.0053 18.3396 34.5323 17.7554C34.9852 17.2523 35.236 16.5186 35.285 15.5543H35.2831V7.07257C35.2831 6.68296 35.4379 6.30929 35.7134 6.03379C35.9889 5.75829 36.3625 5.60352 36.7521 5.60352C37.1418 5.60352 37.5154 5.75829 37.7909 6.03379C38.0664 6.30929 38.2212 6.68296 38.2212 7.07257V15.555C38.21 16.0096 38.1837 16.4418 38.1423 16.8515C38.0868 17.4063 37.9325 17.9467 37.6865 18.4471C37.2357 19.4388 36.438 20.2314 35.4435 20.6758C34.3102 21.1686 33.0833 21.4091 31.8478 21.3807H31.8187C31.429 21.3807 31.0552 21.2259 30.7796 20.9503C30.5039 20.6747 30.3491 20.3008 30.3491 19.9111C30.3491 19.5213 30.5039 19.1475 30.7796 18.8719C31.0552 18.5963 31.4293 18.4418 31.8191 18.4418Z" fill="#6449DB"/>
<path d="M41.9688 13.0744C41.6146 13.0747 41.2722 12.947 41.0047 12.7148L36.7503 9.02873L32.4958 12.7148C32.35 12.8436 32.1801 12.9422 31.996 13.005C31.8118 13.0678 31.617 13.0935 31.4229 13.0806C31.2288 13.0677 31.0391 13.0164 30.8649 12.9298C30.6907 12.8431 30.5353 12.7228 30.4079 12.5758C30.2804 12.4288 30.1834 12.258 30.1223 12.0733C30.0612 11.8886 30.0373 11.6936 30.0521 11.4996C30.0668 11.3056 30.1198 11.1164 30.208 10.943C30.2963 10.7696 30.418 10.6154 30.5662 10.4893L35.7854 5.96741C36.0533 5.73538 36.3958 5.60766 36.7502 5.60766C37.1045 5.60766 37.447 5.73538 37.7149 5.96741L42.9341 10.4893C43.1613 10.6858 43.323 10.9471 43.3974 11.2381C43.4717 11.5291 43.4553 11.836 43.3502 12.1174C43.2451 12.3988 43.0564 12.6413 42.8095 12.8123C42.5626 12.9834 42.2692 13.0749 41.9688 13.0744Z" fill="#6449DB"/>
<path d="M23.5256 9.55496L21.5028 10.375L19.4804 9.55496L21.5028 8.73496L23.5256 9.55496ZM29.0162 9.55496C29.0162 9.25652 28.9271 8.96488 28.7604 8.71736C28.5937 8.46984 28.3569 8.27769 28.0804 8.16552L22.0672 5.72778C21.7059 5.58136 21.3018 5.58136 20.9405 5.72778L14.927 8.16477C14.6504 8.27696 14.4137 8.46911 14.247 8.71663C14.0803 8.96415 13.9912 9.25578 13.9912 9.5542C13.9912 9.85262 14.0803 10.1443 14.247 10.3918C14.4137 10.6393 14.6504 10.8314 14.927 10.9436L20.9396 13.3814C21.3008 13.528 21.705 13.528 22.0662 13.3814L28.0792 10.9436C28.3558 10.8315 28.5926 10.6394 28.7594 10.3918C28.9262 10.1443 29.0152 9.85266 29.0153 9.5542" fill="#2372F0"/>
<path d="M21.503 17.4431C21.3099 17.4431 21.1186 17.4058 20.9396 17.3333L14.927 14.8955C14.7442 14.8218 14.5777 14.7128 14.4371 14.5746C14.2965 14.4365 14.1845 14.272 14.1075 14.0906C14.0305 13.9091 13.9901 13.7143 13.9885 13.5172C13.9869 13.3201 14.0242 13.1246 14.0983 12.9419C14.1723 12.7592 14.2817 12.593 14.42 12.4526C14.5584 12.3122 14.7231 12.2005 14.9047 12.1239C15.0863 12.0472 15.2812 12.0071 15.4783 12.0059C15.6754 12.0047 15.8708 12.0423 16.0534 12.1167L21.503 14.3261L26.9526 12.1167C27.3211 11.9673 27.7339 11.9704 28.1001 12.1253C28.4663 12.2802 28.756 12.5743 28.9054 12.9428C29.0548 13.3113 29.0517 13.7241 28.8967 14.0903C28.7418 14.4565 28.4477 14.7462 28.0792 14.8955L22.0664 17.3333C21.8874 17.4058 21.6961 17.4431 21.503 17.4431Z" fill="#2372F0"/>
<path d="M21.503 21.3951C21.3099 21.3951 21.1186 21.3578 20.9396 21.2853L14.927 18.8475C14.7442 18.7738 14.5777 18.6647 14.4371 18.5266C14.2965 18.3885 14.1845 18.224 14.1075 18.0425C14.0305 17.8611 13.9901 17.6662 13.9885 17.4691C13.9869 17.272 14.0242 17.0765 14.0983 16.8939C14.1723 16.7112 14.2817 16.5449 14.42 16.4046C14.5584 16.2642 14.7231 16.1525 14.9047 16.0758C15.0863 15.9992 15.2812 15.9591 15.4783 15.9579C15.6754 15.9566 15.8708 15.9943 16.0534 16.0686L21.503 18.2781L26.9526 16.0686C27.3211 15.9192 27.7339 15.9224 28.1001 16.0773C28.4663 16.2322 28.756 16.5263 28.9054 16.8948C29.0548 17.2633 29.0517 17.676 28.8967 18.0422C28.7418 18.4085 28.4477 18.6981 28.0792 18.8475L22.0664 21.2853C21.8874 21.3578 21.6961 21.3951 21.503 21.3951Z" fill="#2372F0"/>
<path d="M155.064 1.59906C155.064 1.28279 154.971 0.973633 154.795 0.71067C154.619 0.447706 154.369 0.242751 154.077 0.121722C153.785 0.000692861 153.464 -0.0309738 153.153 0.0307262C152.843 0.0924262 152.558 0.244722 152.335 0.468354C152.111 0.691986 151.959 0.976911 151.897 1.2871C151.835 1.59728 151.867 1.9188 151.988 2.21099C152.109 2.50318 152.314 2.75292 152.577 2.92863C152.84 3.10433 153.149 3.19812 153.465 3.19812C153.889 3.19812 154.296 3.02964 154.596 2.72976C154.896 2.42988 155.064 2.02316 155.064 1.59906ZM154.912 1.59906C154.912 1.8851 154.827 2.16474 154.668 2.40259C154.509 2.64045 154.283 2.82584 154.019 2.93533C153.755 3.04482 153.464 3.07349 153.183 3.01771C152.903 2.96193 152.645 2.8242 152.443 2.62195C152.24 2.4197 152.103 2.16201 152.047 1.88146C151.991 1.60092 152.02 1.31012 152.129 1.04584C152.239 0.781569 152.424 0.555688 152.662 0.396766C152.9 0.237844 153.179 0.15302 153.465 0.15302C153.849 0.15302 154.217 0.305364 154.488 0.576543C154.759 0.847723 154.911 1.21553 154.912 1.59906ZM154.298 2.63113L153.919 1.82717C154.008 1.79023 154.084 1.72883 154.138 1.65019C154.222 1.52403 154.265 1.37522 154.261 1.22396C154.262 1.11975 154.243 1.01627 154.205 0.919247C154.17 0.829829 154.112 0.751037 154.038 0.690567C153.957 0.627538 153.861 0.58693 153.759 0.572831C153.732 0.567861 153.705 0.56471 153.677 0.563397C153.648 0.561888 153.624 0.561322 153.605 0.561322H152.796V2.63113H153.087V1.8883H153.618L153.966 2.63132L154.298 2.63113ZM153.864 1.51076C153.825 1.55091 153.776 1.57868 153.721 1.59057C153.7 1.59546 153.678 1.59881 153.656 1.60057C153.634 1.60245 153.613 1.60359 153.595 1.60359H153.087V0.84453H153.595C153.613 0.84453 153.634 0.845662 153.656 0.847549C153.678 0.849244 153.7 0.853099 153.721 0.859058C153.776 0.870812 153.825 0.898527 153.864 0.938681C153.9 0.976899 153.926 1.02261 153.942 1.07245C153.973 1.17108 153.973 1.27704 153.942 1.37566C153.927 1.42581 153.9 1.47237 153.864 1.51076Z" fill="white"/>
<path d="M88.9154 12.9079C87.9069 12.4097 86.8447 12.0286 85.7495 11.7721C84.5086 11.4594 83.5707 11.1906 82.9356 10.9659C82.3005 10.7411 81.8728 10.5066 81.6525 10.2623C81.4324 10.0174 81.3144 9.6975 81.3227 9.36831C81.3227 8.76253 81.611 8.28617 82.1874 7.93925C82.7639 7.59234 83.5163 7.43844 84.4446 7.47756C85.412 7.5168 86.1986 7.75617 86.8042 8.19567C87.1523 8.4461 87.4367 8.77481 87.6344 9.15529C87.8573 9.58378 87.8497 10.0868 88.0548 10.5172C88.1478 10.7036 88.2769 10.8696 88.4347 11.0057C88.5924 11.1417 88.7756 11.245 88.9737 11.3096C89.2441 11.3974 89.533 11.4116 89.8108 11.3507C90.0885 11.2898 90.345 11.1561 90.5539 10.9632C91.0367 10.5136 91.109 9.88435 91.0027 9.2619C90.6884 7.41831 89.3533 6.03548 87.655 5.35227C86.622 4.95585 85.5224 4.76183 84.4161 4.78076C83.3056 4.75649 82.2016 4.95592 81.1697 5.36718C80.3126 5.70649 79.5685 6.28043 79.0225 7.02321C78.5082 7.75621 78.2412 8.63421 78.2605 9.52944C78.2393 10.2211 78.4146 10.9047 78.7661 11.5008C79.1031 12.043 79.6698 12.5169 80.4661 12.9223C81.5006 13.4132 82.5839 13.7939 83.698 14.0581C84.9385 14.3906 85.8618 14.6691 86.4678 14.8936C87.0739 15.1181 87.472 15.3551 87.6624 15.6045C87.8636 15.8884 87.9642 16.2314 87.9482 16.5791C87.959 16.8945 87.8901 17.2075 87.7479 17.4893C87.6057 17.771 87.3949 18.0124 87.1348 18.1912C86.5926 18.5821 85.8426 18.7776 84.885 18.7776C83.8299 18.7776 82.9481 18.5406 82.2395 18.0666C81.6337 17.6314 81.177 17.0197 80.932 16.3151C80.7078 15.7181 80.498 15.1187 79.8327 14.8989C79.4328 14.7671 78.9969 14.7995 78.6209 14.989C78.2449 15.1786 77.9595 15.5097 77.8276 15.9096C77.5663 16.7021 78.0395 17.6489 78.4031 18.3447C78.7671 19.0825 79.307 19.7195 79.9752 20.1995C81.1988 21.0317 82.7548 21.4744 84.6799 21.4744C86.6828 21.4744 88.2535 21.0298 89.392 20.1406C90.5305 19.2514 91.0996 18.025 91.0993 16.4613C91.1211 15.737 90.9463 15.0204 90.5937 14.3874C90.2567 13.8161 89.6971 13.3233 88.9154 12.9079ZM144.757 9.07529C144.26 7.78057 143.375 6.67103 142.223 5.89831C141.093 5.1534 139.725 4.78095 138.118 4.78095C136.7 4.7498 135.3 5.10876 134.072 5.81869C132.906 6.51734 131.965 7.53642 131.362 8.75454C130.715 10.0206 130.391 11.5154 130.391 13.2389C130.359 14.7276 130.697 16.2009 131.377 17.5261C132.005 18.7278 132.963 19.7259 134.137 20.4036C135.396 21.1094 136.821 21.465 138.264 21.4332C139.734 21.4497 141.178 21.047 142.427 20.2723C143.148 19.8391 143.776 19.2682 144.276 18.5921C144.499 18.2603 144.585 17.8544 144.513 17.4609C144.442 17.0673 144.22 16.7169 143.895 16.4843C143.57 16.2517 143.167 16.155 142.771 16.215C142.376 16.2749 142.019 16.4867 141.777 16.8053C140.869 17.9449 139.558 18.4928 138.119 18.4928C136.668 18.4928 135.558 18.0806 134.788 17.1312C134.152 16.3462 133.784 15.7902 133.673 14.4698H143.903C144.119 14.4674 144.331 14.4204 144.527 14.3319C144.723 14.2433 144.899 14.1152 145.043 13.9554C145.187 13.7956 145.297 13.6077 145.364 13.4036C145.432 13.1994 145.457 12.9834 145.438 12.7691C145.441 11.5064 145.211 10.254 144.758 9.07529M133.743 11.6134C133.905 10.5628 134.251 9.68435 134.789 9.0368C135.558 8.11114 136.707 7.64837 138.236 7.6485C139.619 7.6485 140.649 8.06913 141.325 8.91039C141.835 9.5436 142.158 10.4613 142.295 11.6134H133.743ZM117.549 8.11397C117.105 7.13637 116.319 6.35496 115.338 5.91699C114.274 5.45328 113.125 5.21796 111.964 5.22623C111.94 5.22472 106.717 5.22227 106.717 5.22227C106.527 5.22227 106.338 5.25971 106.163 5.33246C105.987 5.4052 105.828 5.51183 105.693 5.64625C105.559 5.78066 105.452 5.94024 105.379 6.11587C105.307 6.29149 105.269 6.47972 105.269 6.66982C105.269 6.85991 105.307 7.04815 105.379 7.22377C105.452 7.3994 105.559 7.55897 105.693 7.69339C105.828 7.82781 105.987 7.93443 106.163 8.00718C106.338 8.07992 106.527 8.11737 106.717 8.11737L111.766 8.11869C113.03 8.11869 113.921 8.21944 114.44 8.7951C114.824 9.22058 115.059 9.81586 115.149 10.5766C114.622 10.6549 113.725 10.7989 113.309 10.857C112.308 10.9962 111.355 11.1454 110.449 11.3045C109.629 11.4444 108.816 11.629 108.015 11.8574C107.264 12.0878 106.557 12.4437 105.925 12.91C105.375 13.3221 104.934 13.863 104.641 14.4853C104.34 15.1616 104.192 15.8961 104.208 16.6362C104.2 17.4805 104.413 18.3121 104.827 19.0478C105.258 19.7967 105.893 20.4078 106.658 20.8098C107.464 21.2525 108.464 21.4739 109.659 21.4742C111.162 21.4742 112.429 21.1731 113.459 20.571C114.014 20.2468 115.109 18.9696 115.181 18.7936V19.6729C115.181 20.0569 115.334 20.4252 115.606 20.6968C115.877 20.9684 116.246 21.121 116.63 21.121C117.014 21.121 117.382 20.9684 117.654 20.6968C117.925 20.4252 118.078 20.0569 118.078 19.6729V10.9638C118.067 10.5157 118.041 10.0899 118 9.68624C117.946 9.1392 117.793 8.60637 117.551 8.11303M115.086 14.1115C115.07 14.6606 114.971 15.2041 114.794 15.7242C114.66 16.2831 114.399 16.804 114.033 17.2472C113.616 17.7575 113.091 18.1682 112.495 18.4493C111.78 18.7796 110.998 18.9405 110.21 18.9196C109.646 18.9401 109.085 18.8329 108.569 18.6061C108.173 18.4262 107.841 18.1325 107.613 17.7625C107.405 17.4125 107.297 17.0123 107.3 16.6051C107.288 16.2211 107.389 15.842 107.591 15.5151C107.796 15.2061 108.066 14.946 108.383 14.7536C108.743 14.5322 109.126 14.3519 109.525 14.2161C110.096 14.0419 110.677 13.9048 111.265 13.8055C111.917 13.691 112.646 13.574 113.454 13.4545C113.97 13.3779 114.529 13.2945 115.119 13.2057C115.112 13.4698 115.103 13.7685 115.089 14.1113M102.311 18.0704C100.994 18.0704 100.064 17.9653 99.5231 17.3653C99.0568 16.8487 98.799 16.095 98.7495 15.1042L98.7512 8.1268H101.326C101.52 8.13222 101.713 8.09867 101.894 8.02812C102.075 7.95758 102.24 7.85147 102.379 7.71608C102.518 7.58069 102.629 7.41876 102.705 7.23986C102.78 7.06097 102.819 6.86874 102.819 6.67454C102.819 6.48033 102.78 6.2881 102.705 6.10921C102.629 5.93031 102.518 5.76838 102.379 5.63299C102.24 5.4976 102.075 5.39149 101.894 5.32095C101.713 5.2504 101.52 5.21685 101.326 5.22227H92.959C92.5808 5.23283 92.2217 5.39047 91.958 5.66167C91.6942 5.93287 91.5467 6.29624 91.5467 6.67454C91.5467 7.05283 91.6942 7.4162 91.958 7.6874C92.2217 7.9586 92.5808 8.11624 92.959 8.1268H95.7326V15.1042C95.744 15.5712 95.771 16.0152 95.8137 16.4361C95.8706 17.0059 96.0292 17.561 96.282 18.0749C96.7449 19.0941 97.5647 19.9086 98.5867 20.3651C99.7513 20.8714 101.012 21.1185 102.281 21.0893H102.311C102.711 21.0893 103.095 20.9302 103.378 20.6472C103.661 20.3641 103.82 19.9802 103.82 19.5798C103.82 19.1795 103.661 18.7956 103.378 18.5125C103.095 18.2294 102.711 18.0704 102.311 18.0704ZM129.235 18.0704C127.918 18.0704 126.99 17.9653 126.448 17.3653C125.982 16.8487 125.724 16.095 125.674 15.1042L125.676 8.1268H128.25C128.444 8.13222 128.638 8.09867 128.818 8.02812C128.999 7.95758 129.164 7.85147 129.304 7.71608C129.443 7.58069 129.553 7.41876 129.629 7.23986C129.705 7.06097 129.744 6.86874 129.744 6.67454C129.744 6.48033 129.705 6.2881 129.629 6.10921C129.553 5.93031 129.443 5.76838 129.304 5.63299C129.164 5.4976 128.999 5.39149 128.818 5.32095C128.638 5.2504 128.444 5.21685 128.25 5.22227H119.884C119.506 5.23283 119.147 5.39047 118.883 5.66167C118.62 5.93287 118.472 6.29624 118.472 6.67454C118.472 7.05283 118.62 7.4162 118.883 7.6874C119.147 7.9586 119.506 8.11624 119.884 8.1268H122.658V15.1042C122.669 15.5712 122.696 16.0152 122.739 16.4361C122.796 17.0059 122.954 17.561 123.207 18.0749C123.67 19.094 124.49 19.9085 125.512 20.3651C126.676 20.8714 127.937 21.1185 129.207 21.0893H129.236C129.636 21.0893 130.02 20.9302 130.303 20.6472C130.586 20.3641 130.745 19.9802 130.745 19.5798C130.745 19.1795 130.586 18.7956 130.303 18.5125C130.02 18.2294 129.636 18.0704 129.235 18.0704ZM153.555 5.22227H153.525C152.256 5.19305 150.995 5.44021 149.831 5.94661C148.809 6.40303 147.989 7.21755 147.526 8.23661C147.273 8.75055 147.115 9.30561 147.058 9.87548C147.015 10.296 146.988 10.7399 146.977 11.2074V19.5798C146.977 19.9802 147.136 20.3641 147.419 20.6472C147.702 20.9302 148.086 21.0893 148.486 21.0893C148.887 21.0893 149.27 20.9302 149.554 20.6472C149.837 20.3641 149.996 19.9802 149.996 19.5798L149.994 11.2074C150.044 10.2176 150.302 9.46385 150.767 8.94624C151.309 8.34624 152.238 8.24114 153.555 8.24114C153.955 8.24114 154.339 8.08211 154.622 7.79904C154.905 7.51596 155.064 7.13203 155.064 6.73171C155.064 6.33138 154.905 5.94745 154.622 5.66437C154.339 5.3813 153.955 5.22227 153.555 5.22227ZM76.609 1.65264C76.6091 1.26286 76.4544 0.888974 76.1789 0.613229C75.9034 0.337485 75.5297 0.182464 75.1399 0.182264H63.5078V6.95208C63.5078 7.34265 63.663 7.71722 63.9391 7.9934C64.2153 8.26957 64.5899 8.42473 64.9805 8.42473C65.371 8.42473 65.7456 8.26957 66.0218 7.9934C66.2979 7.71722 66.4531 7.34265 66.4531 6.95208V3.1234H75.1399C75.333 3.12328 75.5242 3.08511 75.7025 3.01107C75.8809 2.93703 76.0429 2.82858 76.1793 2.69191C76.3158 2.55524 76.4239 2.39303 76.4976 2.21455C76.5713 2.03607 76.6092 1.84481 76.609 1.6517M75.1399 18.1508H66.4457V15.1676C66.4457 13.8857 66.548 12.9815 67.1318 12.4545C67.6349 12.001 68.3684 11.7501 69.3323 11.7019V11.7038H73.1169C73.3112 11.706 73.504 11.6696 73.6842 11.5968C73.8643 11.524 74.0282 11.4161 74.1664 11.2795C74.3046 11.1428 74.4143 10.9802 74.4892 10.8008C74.564 10.6215 74.6026 10.4291 74.6026 10.2348C74.6026 10.0405 74.564 9.84811 74.4892 9.66879C74.4143 9.48948 74.3046 9.3268 74.1664 9.19017C74.0282 9.05355 73.8643 8.94569 73.6842 8.87286C73.504 8.80002 73.3112 8.76366 73.1169 8.76586H69.3323C68.8776 8.77718 68.4455 8.80347 68.0361 8.84473C67.4815 8.90024 66.9414 9.05463 66.4412 9.30058C65.4495 9.75112 64.6568 10.5488 64.2125 11.5434C63.7313 12.6491 63.4917 13.8448 63.5097 15.0506L63.5078 21.0883H75.1399C75.5295 21.0883 75.9032 20.9335 76.1787 20.658C76.4542 20.3825 76.609 20.0089 76.609 19.6193C76.609 19.2296 76.4542 18.856 76.1787 18.5805C75.9032 18.305 75.5295 18.1508 75.1399 18.1508Z" fill="white"/>
</svg>
